<?xml version="1.0" standalone="no"?>
 <!DOCTYPE svg PUBLIC "-//W3C//DTD SVG 1.1//EN" 
 "http://www.w3.org/Graphics/SVG/1.1/DTD/svg11.dtd"> 
<svg
  xmlns:svg="http://www.w3.org/2000/svg"
  xmlns="http://www.w3.org/2000/svg"
  xmlns:xlink="http://www.w3.org/1999/xlink"
  version="1.1"
  width="297.0022mm" height="210.0072mm" viewBox="0.0000 0.0000 297.0022 210.0072">
<title>SVG Image created as keeb-Edge_Cuts.svg date 2025/09/06 14:26:20 </title>
  <desc>Image generated by PCBNEW </desc>
<g style="fill:#000000; fill-opacity:1.0000;stroke:#000000; stroke-opacity:1.0000;
stroke-linecap:round; stroke-linejoin:round;"
 transform="translate(0 0) scale(1 1)">
</g>
<g style="fill:none; 
stroke:#000000; stroke-width:0.1000; stroke-opacity:1; 
stroke-linecap:round; stroke-linejoin:round;">
<path d="M-4.0000 -32.5000
L-4.6707 -33.0000
" />
<path d="M4.0000 -32.5000
L4.6523 -33.0000
" />
<path d="M-4.0000 -32.5000
L4.0000 -32.5000
" />
</g>
<g style="fill:none; 
stroke:#000000; stroke-width:0.0500; stroke-opacity:1; 
stroke-linecap:round; stroke-linejoin:round;">
<path d="M5.0434 -37.9772 A0.7646 0.7646 0.0 0 0 4.6523 -37.3202" />
</g>
<g style="fill:none; 
stroke:#000000; stroke-width:0.1000; stroke-opacity:1; 
stroke-linecap:round; stroke-linejoin:round;">
<path d="M-43.5000 -41.0000
L-43.5000 29.0000
" />
</g>
<g style="fill:none; 
stroke:#000000; stroke-width:0.0500; stroke-opacity:1; 
stroke-linecap:round; stroke-linejoin:round;">
<path d="M-4.6707 -47.5994
L-4.6707 -33.0000
" />
<path d="M-7.2580 -49.6705 A0.2500 0.2500 0.0 0 0 -7.5995 -49.5790" />
</g>
<g style="fill:none; 
stroke:#000000; stroke-width:0.1000; stroke-opacity:1; 
stroke-linecap:round; stroke-linejoin:round;">
<path d="M-43.0607 -42.0607
L-36.1707 -48.4654
" />
</g>
<g style="fill:none; 
stroke:#000000; stroke-width:0.0500; stroke-opacity:1; 
stroke-linecap:round; stroke-linejoin:round;">
<path d="M-21.1707 -57.1256
L-36.1707 -48.4654
" />
<path d="M4.6523 -37.3202
L4.6523 -33.0000
" />
<path d="M29.9540 -52.0548 A0.9735 0.9735 0.0 0 0 28.9705 -52.0846" />
</g>
<g style="fill:none; 
stroke:#000000; stroke-width:0.1000; stroke-opacity:1; 
stroke-linecap:round; stroke-linejoin:round;">
<path d="M43.5000 -41.0000 A1.5000 1.5000 0.0 0 0 43.0607 -42.0607" />
</g>
<g style="fill:none; 
stroke:#000000; stroke-width:0.0500; stroke-opacity:1; 
stroke-linecap:round; stroke-linejoin:round;">
<path d="M-7.2580 -49.6705
L-5.1707 -48.4654
" />
<path d="M5.0434 -37.9772
L28.9705 -52.0846
" />
<path d="M29.9540 -52.0547
L36.1523 -48.4654
" />
<path d="M-4.6707 -47.5994 A1.0000 1.0000 0.0 0 0 -5.1707 -48.4654" />
<path d="M-18.0833 -55.9205
L-20.1707 -57.1256
" />
<path d="M-17.9918 -55.5790 A0.2500 0.2500 0.0 0 0 -18.0833 -55.9205" />
</g>
<g style="fill:none; 
stroke:#000000; stroke-width:0.1000; stroke-opacity:1; 
stroke-linecap:round; stroke-linejoin:round;">
<path d="M43.5000 29.0000
L43.5000 -41.0000
" />
</g>
<g style="fill:none; 
stroke:#000000; stroke-width:0.0500; stroke-opacity:1; 
stroke-linecap:round; stroke-linejoin:round;">
<path d="M-20.1707 -57.1256 A1.0000 1.0000 0.0 0 0 -21.1707 -57.1256" />
</g>
<g style="fill:none; 
stroke:#000000; stroke-width:0.1000; stroke-opacity:1; 
stroke-linecap:round; stroke-linejoin:round;">
<path d="M-43.0607 -42.0607 A1.5000 1.5000 0.0 0 0 -43.5000 -41.0000" />
<path d="M43.0607 -42.0607
L36.1523 -48.4654
" />
<path d="M40.5000 32.0000 A3.0000 3.0000 0.0 0 0 43.5000 29.0000" />
<path d="M-40.5000 32.0000
L40.5000 32.0000
" />
<path d="M-43.5000 29.0000 A3.0000 3.0000 0.0 0 0 -40.5000 32.0000" />
</g>
<g style="fill:none; 
stroke:#000000; stroke-width:0.0500; stroke-opacity:1; 
stroke-linecap:round; stroke-linejoin:round;">
<path d="M-20.1168 -51.8984
L-17.9918 -55.5790
" />
<path d="M-18.9044 -51.1984
L-15.8794 -56.4378
" />
<path d="M-15.6062 -56.5111
L-7.9852 -52.1111
" />
<path d="M-10.9370 -46.5984
L-7.9120 -51.8378
" />
<path d="M-9.7245 -45.8984
L-7.5995 -49.5790
" />
<path d="M-20.1168 -51.8984 A0.7000 0.7000 0.0 0 0 -19.8606 -50.9422" />
<path d="M-19.8606 -50.9422 A0.7000 0.7000 0.0 0 0 -18.9044 -51.1984" />
<path d="M-15.6062 -56.5111 A0.2000 0.2000 0.0 0 0 -15.8794 -56.4378" />
<path d="M-10.9370 -46.5984 A0.7000 0.7000 0.0 0 0 -10.6807 -45.6422" />
<path d="M-10.6807 -45.6422 A0.7000 0.7000 0.0 0 0 -9.7245 -45.8984" />
<path d="M-7.9120 -51.8378 A0.2000 0.2000 0.0 0 0 -7.9852 -52.1111" />
</g>
<g style="fill:none; 
stroke:#000000; stroke-width:0.1000; stroke-opacity:1; 
stroke-linecap:round; stroke-linejoin:round;">
<circle cx="-41.8750" cy="-24.6500" r="0.6500" /> 
<circle cx="-9.8750" cy="0.3400" r="0.6000" /> 
<circle cx="9.9250" cy="0.3400" r="0.6000" /> 
<circle cx="41.8750" cy="24.6500" r="0.6500" /> 
</g> 
</svg>
